<svg width="518" height="364" viewBox="0 0 518 364" fill="none" xmlns="http://www.w3.org/2000/svg">
<rect x="202.212" width="140.306" height="14.234" rx="3" fill="#19B377" fill-opacity="0.73"/>
<rect x="218.479" y="20.334" width="113.872" height="14.234" rx="3" fill="#19B377" fill-opacity="0.73"/>
<rect x="226.613" y="40.6685" width="93.5371" height="14.2339" rx="3" fill="#19B377" fill-opacity="0.73"/>
<rect x="346.586" y="364" width="140.306" height="14.234" rx="3" transform="rotate(-179.993 346.586 364)" fill="#19B377" fill-opacity="0.73"/>
<rect x="330.321" y="343.664" width="113.872" height="14.234" rx="3" transform="rotate(-179.993 330.321 343.664)" fill="#19B377" fill-opacity="0.73"/>
<rect x="322.189" y="323.328" width="93.5371" height="14.2339" rx="3" transform="rotate(-179.993 322.189 323.328)" fill="#19B377" fill-opacity="0.73"/>
<rect x="242.88" y="61.0031" width="14.234" height="241.979" rx="3" fill="#19B377" fill-opacity="0.73"/>
<rect x="291.683" y="61.0031" width="14.234" height="241.979" rx="3" fill="#19B377" fill-opacity="0.73"/>
<rect x="9" y="40.4396" width="120.084" height="12.1824" rx="3" fill="#19B377" fill-opacity="0.73"/>
<rect x="22.9226" y="57.843" width="97.4596" height="12.1824" rx="3" fill="#19B377" fill-opacity="0.73"/>
<rect x="29.8842" y="75.2465" width="80.0553" height="12.1823" rx="3" fill="#19B377" fill-opacity="0.73"/>
<rect x="132.564" y="351.973" width="120.084" height="12.1824" rx="3" transform="rotate(-179.993 132.564 351.973)" fill="#19B377" fill-opacity="0.73"/>
<rect x="118.644" y="334.568" width="97.4596" height="12.1824" rx="3" transform="rotate(-179.993 118.644 334.568)" fill="#19B377" fill-opacity="0.73"/>
<rect x="111.684" y="317.164" width="80.0553" height="12.1823" rx="3" transform="rotate(-179.993 111.684 317.164)" fill="#19B377" fill-opacity="0.73"/>
<rect x="43.8066" y="92.6498" width="12.1824" height="207.102" rx="3" fill="#19B377" fill-opacity="0.73"/>
<rect x="64.6908" y="92.6498" width="12.1824" height="207.102" rx="3" fill="#19B377" fill-opacity="0.73"/>
<rect x="85.575" y="92.6498" width="12.1824" height="207.102" rx="3" fill="#19B377" fill-opacity="0.73"/>
<rect x="394.3" y="46.0563" width="120.084" height="12.1824" rx="3" fill="#19B377" fill-opacity="0.73"/>
<rect x="408.223" y="63.4596" width="97.4596" height="12.1824" rx="3" fill="#19B377" fill-opacity="0.73"/>
<rect x="415.184" y="80.863" width="80.0553" height="12.1823" rx="3" fill="#19B377" fill-opacity="0.73"/>
<rect x="517.864" y="357.59" width="120.084" height="12.1824" rx="3" transform="rotate(-179.993 517.864 357.59)" fill="#19B377" fill-opacity="0.73"/>
<rect x="503.944" y="340.185" width="97.4596" height="12.1824" rx="3" transform="rotate(-179.993 503.944 340.185)" fill="#19B377" fill-opacity="0.73"/>
<rect x="496.984" y="322.78" width="80.0553" height="12.1823" rx="3" transform="rotate(-179.993 496.984 322.78)" fill="#19B377" fill-opacity="0.73"/>
<rect x="429.107" y="98.2664" width="12.1824" height="207.102" rx="3" fill="#19B377" fill-opacity="0.73"/>
<rect x="449.991" y="98.2664" width="12.1824" height="207.102" rx="3" fill="#19B377" fill-opacity="0.73"/>
<rect x="470.875" y="98.2664" width="12.1824" height="207.102" rx="3" fill="#19B377" fill-opacity="0.73"/>
<path d="M289.678 141.805C289.678 144.555 289.274 147.016 288.464 149.189C287.655 151.317 286.505 153.113 285.014 154.577C283.566 156.04 281.819 157.149 279.774 157.903C277.73 158.657 275.451 159.034 272.938 159.034C270.424 159.034 268.145 158.635 266.101 157.836C264.056 157.038 262.288 155.907 260.797 154.444C259.349 152.936 258.22 151.118 257.411 148.989C256.601 146.861 256.197 144.466 256.197 141.805C256.197 139.189 256.601 136.816 257.411 134.688C258.22 132.559 259.349 130.763 260.797 129.299C262.288 127.792 264.056 126.639 266.101 125.84C268.145 125.042 270.424 124.643 272.938 124.643C275.451 124.643 277.73 125.064 279.774 125.907C281.819 126.705 283.566 127.858 285.014 129.366C286.505 130.829 287.655 132.625 288.464 134.754C289.274 136.883 289.678 139.233 289.678 141.805ZM267.315 141.805C267.315 144.51 267.805 146.595 268.784 148.058C269.807 149.477 271.212 150.187 273.001 150.187C274.791 150.187 276.154 149.455 277.091 147.991C278.071 146.528 278.56 144.466 278.56 141.805C278.56 139.144 278.071 137.104 277.091 135.685C276.111 134.222 274.727 133.49 272.938 133.49C271.148 133.49 269.764 134.222 268.784 135.685C267.805 137.104 267.315 139.144 267.315 141.805Z" fill="black" fill-opacity="0.65"/>
<path d="M226.1 159.034C223.587 159.034 221.244 158.679 219.072 157.969C216.942 157.216 215.067 156.107 213.449 154.643C211.873 153.18 210.616 151.34 209.679 149.122C208.784 146.905 208.337 144.311 208.337 141.34C208.337 138.413 208.784 135.907 209.679 133.823C210.616 131.694 211.83 129.965 213.321 128.634C214.812 127.26 216.516 126.262 218.433 125.641C220.35 124.976 222.309 124.643 224.311 124.643C226.569 124.643 228.613 124.998 230.445 125.707C232.319 126.417 233.917 127.393 235.237 128.634C236.6 129.876 237.644 131.362 238.368 133.091C239.135 134.821 239.518 136.705 239.518 138.745C239.518 140.253 239.114 141.406 238.304 142.204C237.495 143.003 236.366 143.512 234.918 143.734L219.136 146.195C219.604 147.659 220.563 148.768 222.011 149.521C223.459 150.231 225.12 150.586 226.995 150.586C228.741 150.586 230.381 150.364 231.915 149.921C233.491 149.433 234.769 148.878 235.749 148.258C236.43 148.701 237.005 149.322 237.474 150.12C237.942 150.918 238.177 151.761 238.177 152.648C238.177 154.643 237.282 156.129 235.493 157.105C234.13 157.859 232.596 158.369 230.892 158.635C229.189 158.901 227.591 159.034 226.1 159.034ZM224.311 132.892C223.289 132.892 222.394 133.069 221.627 133.424C220.903 133.778 220.307 134.244 219.838 134.821C219.37 135.353 219.008 135.974 218.752 136.683C218.539 137.348 218.411 138.036 218.369 138.745L229.295 136.883C229.167 135.996 228.699 135.109 227.889 134.222C227.08 133.335 225.887 132.892 224.311 132.892Z" fill="black" fill-opacity="0.65"/>
<path d="M195.457 157.903C195.031 158.036 194.349 158.169 193.412 158.302C192.518 158.435 191.581 158.502 190.601 158.502C189.664 158.502 188.812 158.435 188.045 158.302C187.321 158.169 186.703 157.903 186.192 157.504C185.681 157.105 185.276 156.573 184.978 155.907C184.722 155.198 184.595 154.289 184.595 153.18V133.224C184.595 132.204 184.765 131.339 185.106 130.63C185.489 129.876 186.022 129.211 186.703 128.634C187.385 128.058 188.215 127.548 189.195 127.104C190.217 126.617 191.304 126.195 192.454 125.841C193.604 125.486 194.797 125.22 196.032 125.042C197.267 124.821 198.503 124.71 199.738 124.71C201.783 124.71 203.401 125.131 204.594 125.974C205.787 126.772 206.383 128.102 206.383 129.965C206.383 130.586 206.298 131.206 206.128 131.827C205.957 132.404 205.744 132.936 205.489 133.424C204.594 133.424 203.678 133.468 202.741 133.557C201.804 133.646 200.888 133.779 199.994 133.956C199.099 134.133 198.247 134.333 197.438 134.555C196.671 134.732 196.011 134.954 195.457 135.22V157.903Z" fill="black" fill-opacity="0.65"/>
<path d="M179.295 141.805C179.295 144.555 178.891 147.016 178.081 149.189C177.272 151.317 176.122 153.113 174.631 154.577C173.183 156.04 171.436 157.149 169.391 157.903C167.347 158.657 165.068 159.034 162.555 159.034C160.041 159.034 157.762 158.635 155.718 157.836C153.673 157.038 151.905 155.907 150.414 154.444C148.966 152.936 147.837 151.118 147.028 148.989C146.218 146.861 145.814 144.466 145.814 141.805C145.814 139.189 146.218 136.816 147.028 134.688C147.837 132.559 148.966 130.763 150.414 129.299C151.905 127.792 153.673 126.639 155.718 125.84C157.762 125.042 160.041 124.643 162.555 124.643C165.068 124.643 167.347 125.064 169.391 125.907C171.436 126.705 173.183 127.858 174.631 129.366C176.122 130.829 177.272 132.625 178.081 134.754C178.891 136.883 179.295 139.233 179.295 141.805ZM156.932 141.805C156.932 144.51 157.422 146.595 158.401 148.058C159.424 149.477 160.829 150.187 162.618 150.187C164.408 150.187 165.771 149.455 166.708 147.991C167.688 146.528 168.177 144.466 168.177 141.805C168.177 139.144 167.688 137.104 166.708 135.685C165.728 134.222 164.344 133.49 162.555 133.49C160.765 133.49 159.381 134.222 158.401 135.685C157.422 137.104 156.932 139.144 156.932 141.805Z" fill="black" fill-opacity="0.65"/>
<path d="M140.301 157.903C139.832 157.992 139.13 158.102 138.192 158.235C137.298 158.413 136.382 158.502 135.445 158.502C134.508 158.502 133.656 158.435 132.889 158.302C132.165 158.169 131.547 157.903 131.036 157.504C130.525 157.105 130.12 156.572 129.822 155.907C129.566 155.198 129.439 154.289 129.439 153.18V114.599C129.907 114.51 130.589 114.399 131.483 114.266C132.42 114.089 133.358 114 134.295 114C135.232 114 136.063 114.067 136.787 114.2C137.553 114.333 138.192 114.599 138.704 114.998C139.215 115.397 139.598 115.951 139.854 116.661C140.152 117.326 140.301 118.213 140.301 119.322V157.903Z" fill="black" fill-opacity="0.65"/>
<path d="M106.119 124.643C108.675 124.643 111.039 124.998 113.211 125.707C115.427 126.373 117.322 127.415 118.898 128.834C120.474 130.253 121.71 132.049 122.604 134.222C123.499 136.351 123.946 138.9 123.946 141.872C123.946 144.71 123.563 147.193 122.796 149.322C122.029 151.45 120.943 153.247 119.537 154.71C118.131 156.129 116.428 157.193 114.425 157.903C112.466 158.612 110.272 158.967 107.844 158.967C106.012 158.967 104.309 158.679 102.732 158.102V169.145C102.306 169.278 101.625 169.411 100.688 169.544C99.7506 169.721 98.7922 169.81 97.8125 169.81C96.8753 169.81 96.0234 169.743 95.2566 169.61C94.5325 169.477 93.9148 169.211 93.4036 168.812C92.8925 168.413 92.5091 167.859 92.2535 167.149C91.9979 166.484 91.8701 165.597 91.8701 164.488V132.559C91.8701 131.362 92.1044 130.386 92.573 129.632C93.0841 128.878 93.7657 128.191 94.6177 127.57C95.9382 126.683 97.5782 125.974 99.5377 125.441C101.497 124.909 103.691 124.643 106.119 124.643ZM106.247 150.054C110.634 150.054 112.828 147.326 112.828 141.872C112.828 139.034 112.274 136.927 111.167 135.552C110.102 134.178 108.547 133.49 106.502 133.49C105.693 133.49 104.969 133.601 104.33 133.823C103.691 134 103.137 134.222 102.669 134.488V149.122C103.18 149.388 103.734 149.61 104.33 149.788C104.926 149.965 105.565 150.054 106.247 150.054Z" fill="black" fill-opacity="0.65"/>
<path d="M56.6993 130.896C57.0401 129.211 57.7004 127.836 58.6801 126.772C59.7025 125.707 60.9591 125.175 62.45 125.175C63.8557 125.175 64.942 125.53 65.7087 126.24C66.4755 126.949 67.3274 127.947 68.2646 129.233L72.3539 134.821L79.1908 125.175C81.5337 125.175 83.3867 125.619 84.7498 126.506C86.1129 127.348 86.7945 128.501 86.7945 129.965C86.7945 130.541 86.7093 131.073 86.5389 131.561C86.4111 132.005 86.1981 132.47 85.8999 132.958C85.6017 133.446 85.2183 134 84.7498 134.621C84.2812 135.242 83.7274 135.974 83.0885 136.816L78.8713 141.739L87.2417 153.246C87.0287 154.932 86.3898 156.262 85.3248 157.238C84.2599 158.213 82.982 158.701 81.4911 158.701C79.8724 158.657 78.5731 158.169 77.5934 157.238C76.6563 156.306 75.7404 155.176 74.8459 153.845L71.3955 148.723L64.8781 158.502C64.6651 158.502 64.4308 158.502 64.1752 158.502C63.9196 158.546 63.7066 158.568 63.5362 158.568C61.3638 158.568 59.7025 158.102 58.5523 157.171C57.4448 156.24 56.891 155.087 56.891 153.712C56.891 152.648 57.1253 151.717 57.5939 150.918C58.1051 150.076 58.957 148.945 60.1497 147.526L65.2614 141.339L56.6993 130.896Z" fill="black" fill-opacity="0.65"/>
<path d="M24 123.845C24 121.938 24.5325 120.43 25.5974 119.322C26.6623 118.213 28.1107 117.659 29.9423 117.659H51.0281C51.3263 118.146 51.5819 118.789 51.7948 119.588C52.0504 120.386 52.1782 121.228 52.1782 122.115C52.1782 123.801 51.8161 124.998 51.092 125.707C50.4104 126.417 49.4946 126.772 48.3445 126.772H34.8624V132.958H49.239C49.5372 133.446 49.7928 134.089 50.0058 134.887C50.2613 135.641 50.3891 136.461 50.3891 137.348C50.3891 139.034 50.0483 140.231 49.3668 140.94C48.6852 141.65 47.7694 142.005 46.6193 142.005H34.8624V148.989H51.2837C51.5819 149.477 51.8374 150.12 52.0504 150.918C52.306 151.717 52.4338 152.559 52.4338 153.446C52.4338 155.131 52.0717 156.351 51.3476 157.105C50.666 157.814 49.7502 158.169 48.6 158.169H29.9423C28.1107 158.169 26.6623 157.615 25.5974 156.506C24.5325 155.397 24 153.89 24 151.983V123.845Z" fill="black" fill-opacity="0.65"/>
<g filter="url(#filter0_d_19_117)">
<path d="M292 137.99C292 140.857 291.578 143.423 290.734 145.688C289.89 147.908 288.691 149.78 287.137 151.306C285.627 152.832 283.806 153.988 281.674 154.774C279.542 155.56 277.166 155.953 274.546 155.953C271.925 155.953 269.549 155.537 267.418 154.704C265.286 153.872 263.443 152.693 261.888 151.167C260.378 149.595 259.201 147.7 258.357 145.48C257.513 143.261 257.092 140.764 257.092 137.99C257.092 135.262 257.513 132.788 258.357 130.569C259.201 128.35 260.378 126.477 261.888 124.951C263.443 123.379 265.286 122.177 267.418 121.345C269.549 120.513 271.925 120.097 274.546 120.097C277.166 120.097 279.542 120.536 281.674 121.414C283.806 122.247 285.627 123.449 287.137 125.021C288.691 126.547 289.89 128.419 290.734 130.639C291.578 132.858 292 135.308 292 137.99ZM268.683 137.99C268.683 140.81 269.194 142.984 270.216 144.509C271.281 145.989 272.747 146.729 274.612 146.729C276.478 146.729 277.899 145.966 278.876 144.44C279.897 142.914 280.408 140.764 280.408 137.99C280.408 135.216 279.897 133.089 278.876 131.609C277.854 130.084 276.411 129.321 274.546 129.321C272.68 129.321 271.237 130.084 270.216 131.609C269.194 133.089 268.683 135.216 268.683 137.99Z" fill="white"/>
<path d="M225.712 155.953C223.092 155.953 220.649 155.583 218.384 154.843C216.164 154.057 214.21 152.901 212.522 151.375C210.879 149.85 209.568 147.931 208.591 145.619C207.659 143.307 207.192 140.602 207.192 137.505C207.192 134.453 207.659 131.841 208.591 129.668C209.568 127.448 210.834 125.645 212.389 124.258C213.943 122.825 215.72 121.784 217.718 121.137C219.717 120.443 221.76 120.097 223.847 120.097C226.201 120.097 228.333 120.467 230.243 121.206C232.197 121.946 233.862 122.963 235.239 124.258C236.66 125.553 237.748 127.101 238.503 128.905C239.303 130.708 239.703 132.673 239.703 134.8C239.703 136.372 239.281 137.574 238.437 138.406C237.593 139.238 236.416 139.77 234.906 140.001L218.451 142.567C218.94 144.093 219.939 145.249 221.449 146.035C222.959 146.775 224.691 147.145 226.645 147.145C228.466 147.145 230.176 146.914 231.775 146.451C233.418 145.943 234.75 145.365 235.772 144.717C236.483 145.18 237.082 145.827 237.571 146.659C238.059 147.492 238.304 148.37 238.304 149.295C238.304 151.375 237.371 152.924 235.506 153.942C234.084 154.728 232.485 155.259 230.709 155.537C228.932 155.814 227.267 155.953 225.712 155.953ZM223.847 128.697C222.781 128.697 221.849 128.882 221.049 129.251C220.294 129.621 219.672 130.107 219.184 130.708C218.695 131.263 218.318 131.91 218.051 132.65C217.829 133.343 217.696 134.06 217.652 134.8L229.043 132.858C228.91 131.933 228.422 131.008 227.578 130.084C226.734 129.159 225.49 128.697 223.847 128.697Z" fill="white"/>
<path d="M193.763 154.774C193.319 154.913 192.609 155.051 191.632 155.19C190.699 155.329 189.722 155.398 188.7 155.398C187.723 155.398 186.835 155.329 186.036 155.19C185.281 155.051 184.637 154.774 184.104 154.358C183.571 153.942 183.149 153.387 182.838 152.693C182.571 151.953 182.438 151.006 182.438 149.85V129.043C182.438 127.98 182.616 127.078 182.971 126.339C183.371 125.553 183.926 124.859 184.637 124.258C185.347 123.657 186.213 123.125 187.235 122.663C188.301 122.154 189.433 121.715 190.632 121.345C191.831 120.975 193.075 120.698 194.363 120.513C195.651 120.282 196.939 120.166 198.227 120.166C200.359 120.166 202.046 120.605 203.29 121.484C204.533 122.316 205.155 123.703 205.155 125.645C205.155 126.292 205.066 126.94 204.889 127.587C204.711 128.188 204.489 128.743 204.223 129.251C203.29 129.251 202.335 129.298 201.358 129.39C200.381 129.483 199.426 129.621 198.493 129.806C197.561 129.991 196.672 130.199 195.829 130.43C195.029 130.615 194.341 130.847 193.763 131.124V154.774Z" fill="white"/>
<path d="M176.913 137.99C176.913 140.857 176.491 143.423 175.647 145.688C174.804 147.908 173.604 149.78 172.05 151.306C170.54 152.832 168.719 153.988 166.587 154.774C164.455 155.56 162.079 155.953 159.459 155.953C156.839 155.953 154.463 155.537 152.331 154.704C150.199 153.872 148.356 152.693 146.801 151.167C145.291 149.595 144.114 147.7 143.271 145.48C142.427 143.261 142.005 140.764 142.005 137.99C142.005 135.262 142.427 132.788 143.271 130.569C144.114 128.35 145.291 126.477 146.801 124.951C148.356 123.379 150.199 122.177 152.331 121.345C154.463 120.513 156.839 120.097 159.459 120.097C162.079 120.097 164.455 120.536 166.587 121.414C168.719 122.247 170.54 123.449 172.05 125.021C173.604 126.547 174.804 128.419 175.647 130.639C176.491 132.858 176.913 135.308 176.913 137.99ZM153.596 137.99C153.596 140.81 154.107 142.984 155.129 144.509C156.195 145.989 157.66 146.729 159.526 146.729C161.391 146.729 162.812 145.966 163.789 144.44C164.811 142.914 165.321 140.764 165.321 137.99C165.321 135.216 164.811 133.089 163.789 131.609C162.768 130.084 161.324 129.321 159.459 129.321C157.594 129.321 156.15 130.084 155.129 131.609C154.107 133.089 153.596 135.216 153.596 137.99Z" fill="white"/>
<path d="M136.257 154.774C135.768 154.866 135.036 154.982 134.059 155.121C133.126 155.305 132.171 155.398 131.194 155.398C130.217 155.398 129.329 155.329 128.529 155.19C127.774 155.051 127.13 154.774 126.597 154.358C126.064 153.942 125.642 153.387 125.331 152.693C125.065 151.953 124.932 151.006 124.932 149.85V109.624C125.42 109.532 126.131 109.416 127.064 109.277C128.041 109.092 129.018 109 129.995 109C130.972 109 131.838 109.069 132.593 109.208C133.392 109.347 134.059 109.624 134.592 110.04C135.124 110.456 135.524 111.034 135.791 111.774C136.102 112.468 136.257 113.392 136.257 114.548V154.774Z" fill="white"/>
<path d="M100.618 120.097C103.283 120.097 105.748 120.467 108.013 121.206C110.323 121.9 112.299 122.986 113.942 124.466C115.585 125.946 116.873 127.818 117.806 130.084C118.739 132.303 119.205 134.962 119.205 138.059C119.205 141.019 118.805 143.608 118.006 145.827C117.207 148.046 116.074 149.919 114.608 151.445C113.143 152.924 111.366 154.034 109.279 154.774C107.236 155.514 104.949 155.883 102.417 155.883C100.507 155.883 98.7308 155.583 97.0876 154.982V166.495C96.6434 166.633 95.9328 166.772 94.9558 166.911C93.9787 167.096 92.9794 167.188 91.9579 167.188C90.9808 167.188 90.0926 167.119 89.2931 166.98C88.5381 166.841 87.8941 166.564 87.3612 166.148C86.8282 165.732 86.4285 165.154 86.162 164.414C85.8956 163.72 85.7623 162.796 85.7623 161.64V128.35C85.7623 127.101 86.0066 126.084 86.4951 125.298C87.0281 124.512 87.7387 123.796 88.6269 123.148C90.0037 122.224 91.7136 121.484 93.7566 120.929C95.7996 120.374 98.0869 120.097 100.618 120.097ZM100.752 146.59C105.326 146.59 107.613 143.746 107.613 138.059C107.613 135.1 107.036 132.904 105.881 131.471C104.771 130.037 103.15 129.321 101.018 129.321C100.174 129.321 99.4192 129.436 98.753 129.668C98.0869 129.852 97.5095 130.084 97.0209 130.361V145.619C97.5539 145.896 98.1313 146.128 98.753 146.313C99.3748 146.497 100.041 146.59 100.752 146.59Z" fill="white"/>
<path d="M49.0928 126.616C49.4481 124.859 50.1365 123.426 51.158 122.316C52.2239 121.206 53.534 120.651 55.0885 120.651C56.5541 120.651 57.6866 121.021 58.4861 121.761C59.2855 122.501 60.1737 123.541 61.1508 124.882L65.4144 130.708L72.5427 120.651C74.9854 120.651 76.9173 121.114 78.3385 122.039C79.7598 122.917 80.4704 124.119 80.4704 125.645C80.4704 126.246 80.3815 126.801 80.2039 127.309C80.0706 127.772 79.8486 128.257 79.5377 128.766C79.2268 129.274 78.8271 129.852 78.3385 130.5C77.85 131.147 77.2726 131.91 76.6065 132.788L72.2096 137.921L80.9367 149.919C80.7146 151.676 80.0484 153.063 78.9381 154.08C77.8278 155.097 76.4954 155.606 74.941 155.606C73.2533 155.56 71.8987 155.051 70.8772 154.08C69.9001 153.109 68.9453 151.93 68.0126 150.543L64.4152 145.203L57.62 155.398C57.398 155.398 57.1537 155.398 56.8872 155.398C56.6207 155.444 56.3987 155.467 56.221 155.467C53.956 155.467 52.2239 154.982 51.0247 154.011C49.87 153.04 49.2926 151.838 49.2926 150.404C49.2926 149.295 49.5369 148.324 50.0254 147.491C50.5584 146.613 51.4466 145.434 52.6902 143.954L58.0197 137.504L49.0928 126.616Z" fill="white"/>
<path d="M15 119.264C15 117.276 15.5552 115.704 16.6655 114.548C17.7758 113.392 19.2858 112.814 21.1956 112.814H43.1799C43.4908 113.323 43.7572 113.993 43.9793 114.826C44.2458 115.658 44.379 116.536 44.379 117.461C44.379 119.218 44.0015 120.467 43.2465 121.206C42.5359 121.946 41.581 122.316 40.3819 122.316H26.3252V128.766H41.3145C41.6254 129.275 41.8919 129.945 42.114 130.777C42.3804 131.563 42.5137 132.419 42.5137 133.343C42.5137 135.1 42.1584 136.349 41.4478 137.088C40.7372 137.828 39.7823 138.198 38.5832 138.198H26.3252V145.48H43.4463C43.7572 145.989 44.0237 146.659 44.2458 147.492C44.5122 148.324 44.6455 149.202 44.6455 150.127C44.6455 151.884 44.268 153.155 43.513 153.941C42.8024 154.681 41.8475 155.051 40.6483 155.051H21.1956C19.2858 155.051 17.7758 154.473 16.6655 153.317C15.5552 152.161 15 150.589 15 148.601V119.264Z" fill="white"/>
</g>
<path d="M286 207.74C286.474 207.592 287.232 207.444 288.275 207.296C289.318 207.099 290.384 207 291.474 207C292.517 207 293.442 207.074 294.247 207.222C295.1 207.37 295.811 207.666 296.38 208.11C296.949 208.554 297.376 209.171 297.66 209.961C297.944 210.701 298.087 211.688 298.087 212.921V220.175C299.271 219.681 300.385 219.336 301.428 219.139C302.518 218.941 303.703 218.843 304.983 218.843C307.258 218.843 309.415 219.262 311.453 220.101C313.491 220.94 315.292 222.173 316.856 223.802C318.42 225.381 319.653 227.354 320.553 229.723C321.454 232.091 321.904 234.83 321.904 237.939C321.904 241.146 321.43 243.959 320.482 246.377C319.582 248.745 318.302 250.719 316.643 252.298C314.984 253.877 312.946 255.086 310.529 255.925C308.159 256.714 305.528 257.109 302.637 257.109C299.508 257.109 296.854 256.714 294.674 255.925C292.494 255.185 290.645 254.247 289.128 253.112C287.043 251.582 286 249.609 286 247.191V207.74ZM302.637 247.191C304.817 247.191 306.5 246.426 307.685 244.896C308.917 243.317 309.533 240.998 309.533 237.939C309.533 234.83 308.917 232.511 307.685 230.981C306.452 229.452 304.793 228.687 302.708 228.687C301.76 228.687 300.93 228.785 300.219 228.983C299.556 229.18 298.821 229.476 298.015 229.871V246.007C298.537 246.352 299.153 246.648 299.864 246.895C300.622 247.092 301.547 247.191 302.637 247.191Z" fill="black" fill-opacity="0.65"/>
<path d="M241 218.666C241.474 218.518 242.209 218.37 243.204 218.222C244.247 218.074 245.313 218 246.403 218C247.446 218 248.37 218.074 249.176 218.222C250.029 218.37 250.74 218.666 251.309 219.11C251.878 219.554 252.304 220.171 252.589 220.961C252.921 221.701 253.087 222.688 253.087 223.921V239.835C253.087 241.858 253.561 243.314 254.508 244.202C255.456 245.041 256.831 245.46 258.632 245.46C259.722 245.46 260.599 245.361 261.263 245.164C261.974 244.967 262.519 244.769 262.898 244.572V218.666C263.372 218.518 264.107 218.37 265.102 218.222C266.145 218.074 267.211 218 268.301 218C269.344 218 270.268 218.074 271.074 218.222C271.927 218.37 272.638 218.666 273.207 219.11C273.776 219.554 274.202 220.171 274.487 220.961C274.819 221.701 274.984 222.688 274.984 223.921V246.422C274.984 248.889 273.989 250.74 271.998 251.973C270.339 253.059 268.349 253.873 266.026 254.416C263.751 255.008 261.263 255.304 258.561 255.304C256.002 255.304 253.632 255.008 251.451 254.416C249.318 253.824 247.47 252.911 245.906 251.677C244.342 250.444 243.133 248.865 242.28 246.94C241.427 244.967 241 242.598 241 239.835V218.666Z" fill="black" fill-opacity="0.65"/>
<path d="M229.535 258.224C229.013 258.372 228.184 258.52 227.046 258.668C225.956 258.816 224.866 258.89 223.776 258.89C222.686 258.89 221.714 258.791 220.861 258.594C220.055 258.446 219.368 258.15 218.799 257.706C218.23 257.262 217.804 256.645 217.519 255.855C217.235 255.066 217.093 254.03 217.093 252.747V241.2H203.442V258.224C202.921 258.372 202.091 258.52 200.954 258.668C199.863 258.816 198.773 258.89 197.683 258.89C196.593 258.89 195.621 258.791 194.768 258.594C193.962 258.446 193.275 258.15 192.706 257.706C192.138 257.262 191.711 256.645 191.427 255.855C191.142 255.066 191 254.03 191 252.747V213.666C191.521 213.567 192.351 213.444 193.488 213.296C194.626 213.099 195.716 213 196.759 213C197.849 213 198.797 213.099 199.603 213.296C200.456 213.444 201.167 213.74 201.736 214.184C202.304 214.628 202.731 215.245 203.015 216.035C203.3 216.824 203.442 217.86 203.442 219.143V230.986H217.093V213.666C217.614 213.567 218.444 213.444 219.581 213.296C220.719 213.099 221.809 213 222.852 213C223.942 213 224.89 213.099 225.695 213.296C226.549 213.444 227.26 213.74 227.828 214.184C228.397 214.628 228.824 215.245 229.108 216.035C229.393 216.824 229.535 217.86 229.535 219.143V258.224Z" fill="black" fill-opacity="0.65"/>
<path d="M166.255 237.096C166.255 240.156 165.805 242.894 164.904 245.312C164.004 247.681 162.724 249.679 161.065 251.307C159.453 252.936 157.51 254.169 155.235 255.008C152.96 255.847 150.424 256.266 147.627 256.266C144.831 256.266 142.295 255.822 140.02 254.934C137.745 254.046 135.778 252.788 134.119 251.159C132.507 249.482 131.251 247.458 130.351 245.09C129.45 242.721 129 240.057 129 237.096C129 234.185 129.45 231.545 130.351 229.176C131.251 226.808 132.507 224.809 134.119 223.181C135.778 221.503 137.745 220.22 140.02 219.332C142.295 218.444 144.831 218 147.627 218C150.424 218 152.96 218.469 155.235 219.406C157.51 220.295 159.453 221.577 161.065 223.255C162.724 224.884 164.004 226.882 164.904 229.25C165.805 231.619 166.255 234.234 166.255 237.096ZM141.371 237.096C141.371 240.106 141.916 242.425 143.006 244.054C144.144 245.633 145.708 246.422 147.699 246.422C149.689 246.422 151.206 245.608 152.249 243.98C153.339 242.351 153.884 240.057 153.884 237.096C153.884 234.136 153.339 231.866 152.249 230.287C151.159 228.658 149.618 227.844 147.627 227.844C145.637 227.844 144.096 228.658 143.006 230.287C141.916 231.866 141.371 234.136 141.371 237.096Z" fill="black" fill-opacity="0.65"/>
<path d="M114.087 253.934C113.613 254.082 112.854 254.23 111.811 254.378C110.816 254.526 109.773 254.6 108.683 254.6C107.64 254.6 106.692 254.526 105.839 254.378C105.033 254.23 104.346 253.934 103.777 253.49C103.209 253.046 102.758 252.454 102.427 251.714C102.142 250.924 102 249.913 102 248.679V226.474C102 225.339 102.19 224.377 102.569 223.587C102.995 222.749 103.588 222.008 104.346 221.367C105.105 220.725 106.029 220.158 107.119 219.665C108.257 219.122 109.465 218.653 110.745 218.258C112.025 217.864 113.352 217.567 114.726 217.37C116.101 217.123 117.476 217 118.85 217C121.125 217 122.926 217.469 124.253 218.406C125.581 219.294 126.244 220.775 126.244 222.847C126.244 223.538 126.149 224.229 125.96 224.92C125.77 225.561 125.533 226.153 125.249 226.696C124.253 226.696 123.234 226.745 122.192 226.844C121.149 226.943 120.13 227.091 119.134 227.288C118.139 227.486 117.191 227.708 116.291 227.954C115.437 228.152 114.703 228.398 114.087 228.695V253.934Z" fill="black" fill-opacity="0.65"/>
<path d="M77.6021 255.109C74.8056 255.109 72.1987 254.714 69.7814 253.925C67.4115 253.086 65.3259 251.852 63.5248 250.224C61.7711 248.596 60.3728 246.548 59.3301 244.081C58.3347 241.613 57.837 238.727 57.837 235.421C57.837 232.164 58.3347 229.376 59.3301 227.057C60.3728 224.688 61.7237 222.764 63.3826 221.284C65.0416 219.754 66.9375 218.644 69.0704 217.953C71.2033 217.213 73.3836 216.843 75.6114 216.843C78.1235 216.843 80.3986 217.237 82.4367 218.027C84.5222 218.816 86.2996 219.902 87.769 221.284C89.2857 222.665 90.447 224.318 91.2528 226.243C92.1059 228.167 92.5325 230.264 92.5325 232.534C92.5325 234.212 92.0822 235.495 91.1816 236.383C90.2811 237.271 89.025 237.839 87.4135 238.085L69.8525 240.824C70.3739 242.452 71.4403 243.686 73.0518 244.525C74.6634 245.314 76.5119 245.709 78.5974 245.709C80.5408 245.709 82.3656 245.462 84.0719 244.969C85.8257 244.426 87.2476 243.809 88.3378 243.118C89.0961 243.612 89.736 244.303 90.2574 245.191C90.7788 246.079 91.0395 247.017 91.0395 248.003C91.0395 250.224 90.0441 251.877 88.0534 252.963C86.5366 253.801 84.8303 254.369 82.9344 254.665C81.0384 254.961 79.261 255.109 77.6021 255.109ZM75.6114 226.021C74.4738 226.021 73.4784 226.218 72.6253 226.613C71.8195 227.007 71.1559 227.526 70.6345 228.167C70.1132 228.759 69.7103 229.45 69.4259 230.24C69.1889 230.98 69.0467 231.745 68.9993 232.534L81.1569 230.462C81.0147 229.475 80.4934 228.488 79.5928 227.501C78.6922 226.514 77.3651 226.021 75.6114 226.021Z" fill="black" fill-opacity="0.65"/>
<path d="M51.0324 252.37C50.3688 253.061 49.3972 253.579 48.1174 253.925C46.8851 254.319 45.392 254.517 43.6383 254.517C41.8846 254.517 40.2256 254.245 38.6615 253.703C37.0973 253.16 35.8176 251.852 34.8222 249.78L27.7836 234.829C27.0726 233.299 26.4327 231.868 25.864 230.536C25.2952 229.154 24.679 227.575 24.0154 225.799L23.5889 225.873C23.7784 228.537 23.8732 231.251 23.8732 234.014C23.9206 236.778 23.9443 239.492 23.9443 242.156V253.629C23.423 253.777 22.6172 253.925 21.527 254.073C20.4843 254.221 19.4415 254.295 18.3988 254.295C17.356 254.295 16.4317 254.221 15.626 254.073C14.8202 253.925 14.1566 253.629 13.6352 253.185C13.1139 252.74 12.711 252.148 12.4266 251.408C12.1422 250.619 12 249.607 12 248.373V211.365C12.6636 210.378 13.6826 209.638 15.0572 209.145C16.4317 208.651 17.9011 208.405 19.4652 208.405C21.2189 208.405 22.8779 208.701 24.442 209.293C26.0536 209.836 27.3333 211.119 28.2813 213.142L35.391 228.093C36.102 229.623 36.7418 231.078 37.3106 232.46C37.8794 233.792 38.4956 235.347 39.1592 237.123L39.5146 237.049C39.325 234.384 39.2066 231.72 39.1592 229.055C39.1118 226.391 39.0881 223.726 39.0881 221.061V209.071C39.6094 208.923 40.3915 208.775 41.4343 208.627C42.5244 208.479 43.5909 208.405 44.6336 208.405C46.7192 208.405 48.307 208.799 49.3972 209.589C50.4873 210.329 51.0324 211.908 51.0324 214.326V252.37Z" fill="black" fill-opacity="0.65"/>
<g filter="url(#filter1_d_19_117)">
<path d="M281.073 204.79C281.579 204.632 282.389 204.474 283.502 204.316C284.616 204.105 285.755 204 286.919 204C288.033 204 289.02 204.079 289.88 204.237C290.791 204.395 291.551 204.711 292.158 205.186C292.765 205.66 293.221 206.319 293.525 207.162C293.828 207.952 293.98 209.006 293.98 210.324V218.07C295.246 217.543 296.435 217.174 297.549 216.963C298.713 216.753 299.979 216.647 301.345 216.647C303.775 216.647 306.078 217.095 308.255 217.991C310.431 218.887 312.355 220.204 314.025 221.943C315.696 223.63 317.012 225.737 317.973 228.267C318.935 230.796 319.416 233.721 319.416 237.041C319.416 240.466 318.91 243.47 317.898 246.052C316.936 248.581 315.569 250.689 313.797 252.376C312.026 254.062 309.849 255.353 307.268 256.249C304.737 257.092 301.927 257.514 298.84 257.514C295.499 257.514 292.664 257.092 290.336 256.249C288.007 255.458 286.033 254.457 284.413 253.245C282.186 251.611 281.073 249.504 281.073 246.921V204.79ZM298.84 246.921C301.168 246.921 302.965 246.105 304.231 244.471C305.547 242.785 306.205 240.308 306.205 237.041C306.205 233.721 305.547 231.244 304.231 229.611C302.914 227.977 301.143 227.16 298.916 227.16C297.903 227.16 297.017 227.266 296.258 227.476C295.549 227.687 294.765 228.003 293.904 228.425V245.657C294.461 246.026 295.119 246.342 295.878 246.605C296.688 246.816 297.675 246.921 298.84 246.921Z" fill="white"/>
<path d="M236.728 218.386C237.234 218.228 238.019 218.07 239.082 217.912C240.196 217.754 241.335 217.675 242.499 217.675C243.612 217.675 244.599 217.754 245.46 217.912C246.371 218.07 247.13 218.386 247.738 218.86C248.345 219.335 248.801 219.993 249.104 220.836C249.459 221.627 249.636 222.681 249.636 223.998V240.993C249.636 243.153 250.142 244.708 251.155 245.657C252.167 246.552 253.635 247 255.558 247C256.723 247 257.659 246.895 258.368 246.684C259.127 246.473 259.709 246.263 260.114 246.052V218.386C260.62 218.228 261.405 218.07 262.468 217.912C263.581 217.754 264.72 217.675 265.885 217.675C266.998 217.675 267.985 217.754 268.846 217.912C269.757 218.07 270.516 218.386 271.124 218.86C271.731 219.335 272.187 219.993 272.49 220.836C272.845 221.627 273.022 222.681 273.022 223.998V248.028C273.022 250.663 271.959 252.639 269.833 253.956C268.061 255.116 265.935 255.985 263.455 256.565C261.025 257.197 258.368 257.513 255.482 257.513C252.749 257.513 250.218 257.197 247.89 256.565C245.612 255.932 243.638 254.958 241.967 253.64C240.297 252.323 239.006 250.636 238.095 248.581C237.184 246.473 236.728 243.944 236.728 240.993V218.386Z" fill="white"/>
<path d="M227.854 255.933C227.297 256.091 226.412 256.249 225.197 256.407C224.033 256.565 222.868 256.644 221.704 256.644C220.54 256.644 219.502 256.539 218.591 256.328C217.731 256.17 216.997 255.854 216.389 255.379C215.782 254.905 215.326 254.246 215.022 253.403C214.719 252.56 214.567 251.453 214.567 250.083V237.752H199.989V255.933C199.432 256.091 198.546 256.249 197.331 256.407C196.167 256.565 195.003 256.644 193.839 256.644C192.674 256.644 191.637 256.539 190.726 256.328C189.865 256.17 189.131 255.854 188.524 255.379C187.916 254.905 187.461 254.246 187.157 253.403C186.853 252.56 186.701 251.453 186.701 250.083V208.347C187.258 208.242 188.144 208.11 189.359 207.952C190.574 207.741 191.738 207.636 192.852 207.636C194.016 207.636 195.028 207.741 195.889 207.952C196.8 208.11 197.559 208.426 198.167 208.901C198.774 209.375 199.23 210.034 199.533 210.877C199.837 211.72 199.989 212.827 199.989 214.197V226.844H214.567V208.347C215.124 208.242 216.01 208.11 217.224 207.952C218.439 207.741 219.603 207.636 220.717 207.636C221.881 207.636 222.894 207.741 223.754 207.952C224.665 208.11 225.425 208.426 226.032 208.901C226.639 209.375 227.095 210.034 227.399 210.877C227.702 211.72 227.854 212.827 227.854 214.197V255.933Z" fill="white"/>
<path d="M164.217 237.041C164.217 240.308 163.736 243.233 162.774 245.815C161.812 248.344 160.446 250.479 158.674 252.218C156.953 253.956 154.877 255.274 152.448 256.17C150.018 257.066 147.31 257.514 144.324 257.514C141.337 257.514 138.629 257.039 136.199 256.091C133.77 255.142 131.669 253.798 129.897 252.059C128.176 250.268 126.835 248.107 125.873 245.578C124.911 243.048 124.43 240.203 124.43 237.041C124.43 233.932 124.911 231.112 125.873 228.583C126.835 226.054 128.176 223.919 129.897 222.18C131.669 220.389 133.77 219.019 136.199 218.07C138.629 217.121 141.337 216.647 144.324 216.647C147.31 216.647 150.018 217.148 152.448 218.149C154.877 219.098 156.953 220.468 158.674 222.259C160.446 223.998 161.812 226.133 162.774 228.662C163.736 231.192 164.217 233.984 164.217 237.041ZM137.642 237.041C137.642 240.255 138.224 242.732 139.388 244.471C140.603 246.157 142.273 247.001 144.399 247.001C146.525 247.001 148.145 246.131 149.259 244.392C150.423 242.653 151.005 240.203 151.005 237.041C151.005 233.879 150.423 231.455 149.259 229.769C148.095 228.03 146.449 227.16 144.324 227.16C142.198 227.16 140.552 228.03 139.388 229.769C138.224 231.455 137.642 233.879 137.642 237.041Z" fill="white"/>
<path d="M109.125 256.17C108.619 256.328 107.809 256.486 106.695 256.644C105.632 256.802 104.519 256.881 103.354 256.881C102.241 256.881 101.229 256.802 100.317 256.644C99.4569 256.486 98.7229 256.17 98.1155 255.695C97.5081 255.221 97.0272 254.589 96.6728 253.798C96.3691 252.955 96.2173 251.875 96.2173 250.557V226.844C96.2173 225.632 96.4198 224.604 96.8247 223.761C97.2803 222.865 97.913 222.075 98.7229 221.39C99.5328 220.705 100.52 220.099 101.684 219.572C102.899 218.992 104.19 218.492 105.556 218.07C106.923 217.648 108.34 217.332 109.808 217.121C111.276 216.858 112.744 216.726 114.212 216.726C116.642 216.726 118.565 217.227 119.983 218.228C121.4 219.177 122.109 220.757 122.109 222.971C122.109 223.709 122.007 224.446 121.805 225.184C121.602 225.869 121.349 226.501 121.046 227.081C119.983 227.081 118.894 227.134 117.781 227.239C116.667 227.345 115.579 227.503 114.516 227.713C113.453 227.924 112.441 228.161 111.479 228.425C110.568 228.636 109.783 228.899 109.125 229.215V256.17Z" fill="white"/>
<path d="M74.0592 257.514C71.0727 257.514 68.2887 257.092 65.7072 256.249C63.1762 255.353 60.949 254.036 59.0255 252.297C57.1526 250.558 55.6594 248.371 54.5458 245.736C53.4828 243.101 52.9513 240.018 52.9513 236.488C52.9513 233.01 53.4828 230.032 54.5458 227.555C55.6594 225.026 57.102 222.971 58.8737 221.39C60.6453 219.756 62.6701 218.571 64.9479 217.833C67.2257 217.042 69.5542 216.647 71.9332 216.647C74.616 216.647 77.0457 217.069 79.2223 217.912C81.4495 218.755 83.3477 219.914 84.9169 221.39C86.5367 222.865 87.7769 224.631 88.6374 226.686C89.5485 228.741 90.0041 230.981 90.0041 233.405C90.0041 235.196 89.5232 236.567 88.5614 237.515C87.5997 238.464 86.2583 239.07 84.5373 239.333L65.7831 242.258C66.3399 243.997 67.4788 245.314 69.1998 246.21C70.9209 247.053 72.895 247.475 75.1222 247.475C77.1976 247.475 79.1464 247.211 80.9687 246.684C82.8415 246.105 84.3601 245.446 85.5243 244.708C86.3342 245.235 87.0176 245.973 87.5744 246.921C88.1312 247.87 88.4096 248.871 88.4096 249.925C88.4096 252.297 87.3466 254.062 85.2206 255.221C83.6008 256.117 81.7786 256.723 79.7538 257.039C77.7291 257.355 75.8309 257.514 74.0592 257.514ZM71.9332 226.449C70.7184 226.449 69.6554 226.66 68.7443 227.081C67.8838 227.503 67.1751 228.056 66.6183 228.741C66.0615 229.373 65.6312 230.111 65.3275 230.954C65.0744 231.745 64.9226 232.562 64.872 233.405L77.8556 231.192C77.7038 230.138 77.147 229.084 76.1852 228.03C75.2235 226.976 73.8061 226.449 71.9332 226.449Z" fill="white"/>
<path d="M45.6844 254.589C44.9757 255.327 43.938 255.88 42.5713 256.249C41.2552 256.67 39.6608 256.881 37.7879 256.881C35.915 256.881 34.1433 256.591 32.4729 256.012C30.8025 255.432 29.4358 254.036 28.3728 251.822L20.856 235.855C20.0967 234.222 19.4133 232.693 18.8059 231.271C18.1985 229.795 17.5405 228.109 16.8318 226.212L16.3762 226.291C16.5787 229.136 16.6799 232.035 16.6799 234.986C16.7306 237.937 16.7559 240.835 16.7559 243.681V255.933C16.1991 256.091 15.3386 256.249 14.1743 256.407C13.0607 256.565 11.9471 256.644 10.8335 256.644C9.71989 256.644 8.73283 256.565 7.87232 256.407C7.0118 256.249 6.30314 255.933 5.74634 255.458C5.18954 254.984 4.75928 254.352 4.45557 253.561C4.15186 252.718 4 251.638 4 250.32V210.798C4.70866 209.744 5.79696 208.953 7.2649 208.426C8.73283 207.9 10.302 207.636 11.9724 207.636C13.8453 207.636 15.617 207.952 17.2874 208.585C19.0084 209.164 20.3751 210.534 21.3875 212.695L28.9803 228.662C29.7395 230.296 30.4229 231.85 31.0303 233.326C31.6377 234.749 32.2958 236.408 33.0044 238.306L33.3841 238.226C33.1816 235.381 33.055 232.535 33.0044 229.69C32.9538 226.844 32.9285 223.998 32.9285 221.153V208.347C33.4853 208.189 34.3205 208.031 35.4341 207.873C36.5983 207.715 37.7373 207.636 38.8509 207.636C41.0781 207.636 42.7738 208.058 43.938 208.901C45.1023 209.691 45.6844 211.378 45.6844 213.96V254.589Z" fill="white"/>
</g>
<path d="M266 64C266 62.3431 267.343 61 269 61H277.234C278.891 61 280.234 62.3431 280.234 64V299.979C280.234 301.636 278.891 302.979 277.234 302.979H269C267.343 302.979 266 301.636 266 299.979V64Z" fill="#19B377" fill-opacity="0.73"/>
<defs>
<filter id="filter0_d_19_117" x="11" y="109" width="285" height="69.1882" filterUnits="userSpaceOnUse" color-interpolation-filters="sRGB">
<feFlood flood-opacity="0" result="BackgroundImageFix"/>
<feColorMatrix in="SourceAlpha" type="matrix" values="0 0 0 0 0 0 0 0 0 0 0 0 0 0 0 0 0 0 127 0" result="hardAlpha"/>
<feOffset dy="7"/>
<feGaussianBlur stdDeviation="2"/>
<feComposite in2="hardAlpha" operator="out"/>
<feColorMatrix type="matrix" values="0 0 0 0 0 0 0 0 0 0 0 0 0 0 0 0 0 0 0.34 0"/>
<feBlend mode="normal" in2="BackgroundImageFix" result="effect1_dropShadow_19_117"/>
<feBlend mode="normal" in="SourceGraphic" in2="effect1_dropShadow_19_117" result="shape"/>
</filter>
<filter id="filter1_d_19_117" x="0" y="204" width="323.416" height="64.5135" filterUnits="userSpaceOnUse" color-interpolation-filters="sRGB">
<feFlood flood-opacity="0" result="BackgroundImageFix"/>
<feColorMatrix in="SourceAlpha" type="matrix" values="0 0 0 0 0 0 0 0 0 0 0 0 0 0 0 0 0 0 127 0" result="hardAlpha"/>
<feOffset dy="7"/>
<feGaussianBlur stdDeviation="2"/>
<feComposite in2="hardAlpha" operator="out"/>
<feColorMatrix type="matrix" values="0 0 0 0 0 0 0 0 0 0 0 0 0 0 0 0 0 0 0.34 0"/>
<feBlend mode="normal" in2="BackgroundImageFix" result="effect1_dropShadow_19_117"/>
<feBlend mode="normal" in="SourceGraphic" in2="effect1_dropShadow_19_117" result="shape"/>
</filter>
</defs>
</svg>
