<svg width="103" height="19" viewBox="0 0 103 19" fill="none" xmlns="http://www.w3.org/2000/svg">
<path d="M70.0415 18.6971C68.0573 18.6971 66.4717 18.112 65.2845 16.9419C64.1144 15.7547 63.5293 14.0843 63.5293 11.9305C63.5293 10.6077 63.8006 9.44606 64.3433 8.44548C64.886 7.44491 65.6407 6.66481 66.6073 6.10516C67.5909 5.52856 68.7357 5.24026 70.0415 5.24026C71.4999 5.24026 72.7125 5.52856 73.6792 6.10516C74.6458 6.66481 75.3666 7.44491 75.8414 8.44548C76.3332 9.44606 76.5791 10.6077 76.5791 11.9305C76.5791 14.0843 76.0364 15.7547 74.9511 16.9419C73.8827 18.112 72.2461 18.6971 70.0415 18.6971ZM66.5564 11.4981C66.5564 12.0238 66.8193 12.3969 67.345 12.6174C67.8708 12.8209 68.7696 12.9226 70.0415 12.9226C71.3134 12.9226 72.2122 12.8209 72.7379 12.6174C73.2637 12.3969 73.5265 12.0238 73.5265 11.4981C73.5265 10.9893 73.2637 10.6332 72.7379 10.4297C72.2122 10.2262 71.3134 10.1244 70.0415 10.1244C68.7696 10.1244 67.8708 10.2262 67.345 10.4297C66.8193 10.6332 66.5564 10.9893 66.5564 11.4981Z" fill="#19B377"/>
<path d="M54.3742 18.6463C53.5772 18.6463 52.9582 18.4173 52.5172 17.9594C52.0763 17.5015 51.8558 16.9249 51.8558 16.2296V7.88587C51.8558 7.15664 52.0763 6.5546 52.5172 6.07975C52.9582 5.58795 53.5772 5.34205 54.3742 5.34205C55.1713 5.34205 55.7818 5.58795 56.2058 6.07975C56.6297 6.5546 56.8417 7.13968 56.8417 7.83499V8.3692H57.3251C57.3929 7.47038 57.7321 6.73267 58.3426 6.15607C58.9531 5.57947 59.6739 5.29117 60.5048 5.29117C61.3358 5.29117 61.9887 5.54555 62.4636 6.05432C62.9554 6.56308 63.2013 7.24143 63.2013 8.08938C63.2013 8.88644 62.9724 9.54784 62.5145 10.0736C62.0566 10.5993 61.4715 10.8621 60.7592 10.8621C60.1657 10.8621 59.6654 10.7265 59.2584 10.4551C58.8683 10.1668 58.58 9.83614 58.3935 9.46304C57.8508 9.39521 57.4523 9.45456 57.1979 9.64111C56.9604 9.8107 56.8417 10.1584 56.8417 10.6841V16.2296C56.8417 16.9249 56.6297 17.5015 56.2058 17.9594C55.7818 18.4173 55.1713 18.6463 54.3742 18.6463Z" fill="#19B377"/>
<path d="M38.1407 12.0323C38.1407 10.6925 38.4036 9.51389 38.9293 8.49636C39.472 7.47883 40.2352 6.68177 41.2188 6.10516C42.2193 5.52856 43.4065 5.24026 44.7801 5.24026C45.8485 5.24026 46.8067 5.43529 47.6547 5.82534C48.5196 6.2154 49.1979 6.74112 49.6897 7.40252C50.1815 8.04695 50.4274 8.75922 50.4274 9.53933C50.4274 10.3534 50.19 10.93 49.7152 11.2691C49.2403 11.6083 48.5365 11.7779 47.6038 11.7779H42.2617C42.2617 12.2188 42.4313 12.5834 42.7705 12.8717C43.1266 13.16 43.7202 13.3042 44.5512 13.3042C44.9752 13.3042 45.3652 13.2618 45.7213 13.177C46.0944 13.0922 46.4675 13.0159 46.8406 12.9481C47.2307 12.8633 47.6631 12.8209 48.138 12.8209C48.8163 12.8209 49.376 13.0668 49.8169 13.5586C50.2578 14.0334 50.4783 14.6948 50.4783 15.5428C50.4783 16.5433 49.9611 17.3234 48.9266 17.8831C47.909 18.4427 46.5693 18.7225 44.9073 18.7225C43.7372 18.7225 42.6348 18.4936 41.6003 18.0357C40.5828 17.5778 39.7518 16.8571 39.1074 15.8735C38.463 14.8729 38.1407 13.5925 38.1407 12.0323ZM46.3827 10.9384C46.6371 10.9384 46.7219 10.8197 46.6371 10.5823C46.5693 10.3449 46.3658 10.099 46.0266 9.84459C45.6874 9.59021 45.1956 9.46302 44.5512 9.46302C43.805 9.46302 43.2454 9.62412 42.8723 9.94634C42.5161 10.2686 42.3381 10.5993 42.3381 10.9384H46.3827Z" fill="#19B377"/>
<path d="M23.5252 18.6462C22.6773 18.6462 22.0329 18.3834 21.5919 17.8576C21.151 17.3319 20.9305 16.6281 20.9305 15.7463V3.81572C20.9305 2.93386 21.0917 2.22159 21.4139 1.6789C21.753 1.11926 22.1855 0.712249 22.7112 0.457867C23.2539 0.203485 23.839 0.0762939 24.4665 0.0762939C25.3992 0.0762939 26.1878 0.322196 26.8322 0.814002C27.4767 1.30581 27.9769 2.17071 28.3331 3.4087L31.0804 12.7954H31.4874V3.02713C31.4874 2.12831 31.7164 1.42452 32.1743 0.915756C32.6321 0.390032 33.2851 0.127169 34.133 0.127169C35.0149 0.127169 35.6678 0.390032 36.0917 0.915756C36.5327 1.42452 36.7531 2.12831 36.7531 3.02713V14.5252C36.7531 15.9498 36.4394 17.0012 35.8119 17.6796C35.1844 18.3579 34.3026 18.6971 33.1663 18.6971C32.0131 18.6971 31.1143 18.3918 30.4699 17.7813C29.8255 17.1708 29.3336 16.272 28.9945 15.0849L27.1884 8.90337C27.1544 8.73378 27.0866 8.58115 26.9848 8.44548C26.9001 8.29285 26.7813 8.21654 26.6287 8.21654C26.4422 8.21654 26.315 8.29285 26.2471 8.44548C26.1793 8.58115 26.1454 8.73378 26.1454 8.90337V15.7463C26.1454 16.6281 25.9249 17.3319 25.484 17.8576C25.0431 18.3834 24.3901 18.6462 23.5252 18.6462Z" fill="#19B377"/>
<path d="M87.3596 18.6462C86.2233 18.4767 85.4856 17.9594 85.1464 17.0945C84.8073 16.2127 84.8751 15.1018 85.3499 13.7621L88.7078 4.22275C89.013 3.34089 89.3607 2.58622 89.7508 1.95875C90.1578 1.33127 90.6581 0.847941 91.2516 0.508764C91.8621 0.169588 92.6168 0 93.5156 0C94.8723 0 95.8899 0.373094 96.5682 1.11928C97.2635 1.86547 97.8401 2.89996 98.298 4.22275L101.63 13.7621C102.105 15.1018 102.19 16.2127 101.885 17.0945C101.597 17.9594 100.876 18.4767 99.7226 18.6462C98.7898 18.765 97.9758 18.6547 97.2805 18.3155C96.6021 17.9764 96.1951 17.4252 96.0594 16.6621C95.9577 16.1533 95.9407 15.7293 96.0086 15.3901C96.0934 15.051 96.1697 14.7796 96.2375 14.5761C96.2884 14.4065 96.2884 14.2454 96.2375 14.0928C96.2036 13.9232 96.0764 13.8384 95.8559 13.8384H91.1244C90.904 13.8384 90.7683 13.9232 90.7174 14.0928C90.6835 14.2454 90.7005 14.4065 90.7683 14.5761C90.8361 14.7796 90.904 15.051 90.9718 15.3901C91.0396 15.7293 91.0312 16.1533 90.9464 16.6621C90.8107 17.4252 90.4122 17.9764 89.7508 18.3155C89.0894 18.6547 88.2923 18.765 87.3596 18.6462ZM95.3726 10.2771L94.0498 6.13062C94.0159 5.96103 93.9565 5.83384 93.8718 5.74905C93.8039 5.64729 93.6852 5.59642 93.5156 5.59642C93.346 5.59642 93.2188 5.64729 93.134 5.74905C93.0662 5.83384 93.0069 5.96103 92.956 6.13062L91.6586 10.2771H95.3726Z" fill="white"/>
<path d="M81.1876 18.6972C80.4075 18.6972 79.7716 18.4598 79.2798 17.985C78.788 17.5101 78.5421 16.9081 78.5421 16.1789V2.72202C78.5421 1.97584 78.7795 1.34836 79.2543 0.839594C79.7461 0.33083 80.3906 0.0764465 81.1876 0.0764465C82.0356 0.0764465 82.697 0.33083 83.1718 0.839594C83.6636 1.3314 83.9095 1.94192 83.9095 2.67115V16.1789C83.9095 16.9081 83.6467 17.5101 83.1209 17.985C82.6122 18.4598 81.9677 18.6972 81.1876 18.6972Z" fill="white"/>
<path d="M0 5.5592C0 3.03062 2.31486 0.980789 5.17038 0.980789H11.7885C14.644 0.980789 16.9588 3.03061 16.9588 5.55919V13.1243C16.9588 14.8577 15.8415 16.4392 14.0811 17.1974L10.644 18.6776C9.71292 19.0787 8.59536 18.6687 8.25728 17.8021C8.0447 17.2572 7.504 16.8645 6.85893 16.7866L3.95534 16.4358C1.68933 16.162 0 14.4482 0 12.423V5.5592Z" fill="white"/>
<path d="M2.27484 7.12132C2.27484 6.69146 2.66837 6.34299 3.15381 6.34299C3.63924 6.34299 4.03277 6.69146 4.03277 7.12132V10.9269C4.03277 11.3567 3.63924 11.7052 3.15381 11.7052C2.66837 11.7052 2.27484 11.3567 2.27484 10.9269V7.12132Z" fill="#19B377"/>
<path d="M5.79077 4.81002C5.79077 4.38016 6.1843 4.03169 6.66974 4.03169C7.15517 4.03169 7.5487 4.38016 7.5487 4.81002V13.1457C7.5487 13.5756 7.15517 13.924 6.66974 13.924C6.1843 13.924 5.79077 13.5756 5.79077 13.1457V4.81002Z" fill="#19B377"/>
<path d="M9.20325 4.62512C9.20325 4.19526 9.59677 3.84679 10.0822 3.84679C10.5676 3.84679 10.9612 4.19526 10.9612 4.62512V14.5325C10.9612 14.9623 10.5676 15.3108 10.0822 15.3108C9.59677 15.3108 9.20325 14.9623 9.20325 14.5325V4.62512Z" fill="#19B377"/>
<path d="M12.7192 7.12131C12.7192 6.69146 13.1128 6.34299 13.5982 6.34299C14.0836 6.34299 14.4772 6.69146 14.4772 7.12132V12.4061C14.4772 12.8359 14.0836 13.1844 13.5982 13.1844C13.1128 13.1844 12.7192 12.8359 12.7192 12.4061V7.12131Z" fill="#19B377"/>
</svg>
