<svg width="224" height="42" viewBox="0 0 224 42" fill="none" xmlns="http://www.w3.org/2000/svg">
<path d="M153.367 41.0934C149.043 41.0934 145.587 39.8183 143 37.268C140.45 34.6808 139.175 31.0403 139.175 26.3463C139.175 23.4635 139.766 20.9317 140.949 18.7511C142.132 16.5704 143.776 14.8703 145.883 13.6506C148.027 12.3939 150.522 11.7656 153.367 11.7656C156.546 11.7656 159.189 12.3939 161.295 13.6506C163.402 14.8703 164.973 16.5704 166.008 18.7511C167.08 20.9317 167.616 23.4635 167.616 26.3463C167.616 31.0403 166.433 34.6808 164.067 37.268C161.739 39.8183 158.172 41.0934 153.367 41.0934ZM145.772 25.4039C145.772 26.5496 146.345 27.3627 147.491 27.8432C148.637 28.2867 150.595 28.5085 153.367 28.5085C156.139 28.5085 158.098 28.2867 159.244 27.8432C160.39 27.3627 160.963 26.5496 160.963 25.4039C160.963 24.2951 160.39 23.5189 159.244 23.0754C158.098 22.6319 156.139 22.4101 153.367 22.4101C150.595 22.4101 148.637 22.6319 147.491 23.0754C146.345 23.5189 145.772 24.2951 145.772 25.4039Z" fill="#19B377"/>
<path d="M119.222 40.981C117.485 40.981 116.136 40.482 115.175 39.4841C114.214 38.4862 113.734 37.2296 113.734 35.7142V17.5299C113.734 15.9406 114.214 14.6285 115.175 13.5936C116.136 12.5218 117.485 11.9859 119.222 11.9859C120.96 11.9859 122.29 12.5218 123.214 13.5936C124.138 14.6285 124.6 15.9036 124.6 17.419V18.5832H125.653C125.801 16.6244 126.541 15.0166 127.871 13.76C129.202 12.5033 130.772 11.875 132.583 11.875C134.395 11.875 135.817 12.4294 136.852 13.5382C137.924 14.647 138.46 16.1254 138.46 17.9734C138.46 19.7105 137.961 21.152 136.963 22.2977C135.965 23.4435 134.69 24.0164 133.138 24.0164C131.844 24.0164 130.754 23.7207 129.867 23.1293C129.017 22.501 128.389 21.7803 127.982 20.9672C126.799 20.8193 125.931 20.9487 125.376 21.3552C124.859 21.7248 124.6 22.4825 124.6 23.6283V35.7142C124.6 37.2296 124.138 38.4862 123.214 39.4841C122.29 40.482 120.96 40.981 119.222 40.981Z" fill="#19B377"/>
<path d="M83.8433 26.5681C83.8433 23.6483 84.4161 21.0795 85.5619 18.8619C86.7446 16.6443 88.4078 14.9072 90.5515 13.6506C92.7321 12.3939 95.3193 11.7656 98.3131 11.7656C100.642 11.7656 102.73 12.1907 104.578 13.0407C106.463 13.8908 107.941 15.0366 109.013 16.478C110.085 17.8825 110.621 19.4348 110.621 21.135C110.621 22.9091 110.103 24.1657 109.068 24.9049C108.034 25.6441 106.5 26.0137 104.467 26.0137H92.8245C92.8245 26.9747 93.1941 27.7693 93.9333 28.3976C94.7095 29.0259 96.0031 29.3401 97.8141 29.3401C98.7381 29.3401 99.5882 29.2477 100.364 29.0629C101.178 28.8781 101.991 28.7118 102.804 28.5639C103.654 28.3791 104.596 28.2867 105.631 28.2867C107.11 28.2867 108.329 28.8227 109.29 29.8945C110.251 30.9294 110.732 32.3708 110.732 34.2188C110.732 36.3995 109.604 38.0996 107.35 39.3193C105.132 40.539 102.212 41.1488 98.5903 41.1488C96.0401 41.1488 93.6377 40.6499 91.3831 39.6519C89.1655 38.654 87.3545 37.0832 85.95 34.9395C84.5455 32.7589 83.8433 29.9684 83.8433 26.5681ZM101.806 24.1842C102.36 24.1842 102.545 23.9255 102.36 23.408C102.212 22.8906 101.769 22.3547 101.03 21.8003C100.29 21.2459 99.2186 20.9687 97.8141 20.9687C96.1879 20.9687 94.9682 21.3198 94.1551 22.022C93.3789 22.7243 92.9909 23.445 92.9909 24.1842H101.806Z" fill="#19B377"/>
<path d="M51.9903 40.9829C50.1423 40.9829 48.7378 40.41 47.7769 39.2643C46.8159 38.1185 46.3354 36.5847 46.3354 34.6628V8.6614C46.3354 6.73948 46.6866 5.18716 47.3888 4.00444C48.128 2.78476 49.0705 1.89772 50.2162 1.34332C51.399 0.788918 52.6741 0.511719 54.0416 0.511719C56.0744 0.511719 57.793 1.04764 59.1975 2.11948C60.602 3.19132 61.6923 5.07628 62.4685 7.77436L68.456 28.2317H69.3431V6.94276C69.3431 4.98388 69.842 3.45004 70.8399 2.34124C71.8379 1.19548 73.2608 0.622597 75.1088 0.622597C77.0307 0.622597 78.4537 1.19548 79.3777 2.34124C80.3387 3.45004 80.8191 4.98388 80.8191 6.94276V32.0016C80.8191 35.1063 80.1354 37.3978 78.7679 38.8762C77.4003 40.3546 75.4784 41.0938 73.0021 41.0938C70.4888 41.0938 68.5299 40.4285 67.1255 39.098C65.721 37.7674 64.6491 35.8085 63.9099 33.2213L59.9737 19.7494C59.8998 19.3798 59.7519 19.0472 59.5302 18.7515C59.3454 18.4188 59.0867 18.2525 58.754 18.2525C58.3475 18.2525 58.0703 18.4188 57.9224 18.7515C57.7746 19.0472 57.7007 19.3798 57.7007 19.7494V34.6628C57.7007 36.5847 57.2202 38.1185 56.2592 39.2643C55.2983 40.41 53.8753 40.9829 51.9903 40.9829Z" fill="#19B377"/>
<path d="M191.11 40.9813C188.634 40.6117 187.026 39.4844 186.287 37.5994C185.548 35.6775 185.696 33.2566 186.731 30.3368L194.049 9.54679C194.714 7.62487 195.472 5.98015 196.322 4.61263C197.209 3.24511 198.299 2.19175 199.593 1.45255C200.923 0.713348 202.568 0.34375 204.527 0.34375C207.484 0.34375 209.701 1.15687 211.18 2.78311C212.695 4.40935 213.952 6.66391 214.95 9.54679L222.212 30.3368C223.247 33.2566 223.432 35.6775 222.767 37.5994C222.138 39.4844 220.568 40.6117 218.054 40.9813C216.022 41.24 214.247 40.9998 212.732 40.2606C211.254 39.5214 210.367 38.3202 210.071 36.657C209.849 35.5482 209.812 34.6242 209.96 33.8849C210.145 33.1458 210.311 32.5544 210.459 32.1109C210.57 31.7413 210.57 31.3902 210.459 31.0575C210.385 30.6879 210.108 30.5031 209.627 30.5031H199.316C198.835 30.5031 198.539 30.6879 198.429 31.0575C198.355 31.3902 198.392 31.7413 198.539 32.1109C198.687 32.5544 198.835 33.1458 198.983 33.8849C199.131 34.6242 199.112 35.5482 198.928 36.657C198.632 38.3202 197.763 39.5214 196.322 40.2606C194.88 40.9998 193.143 41.24 191.11 40.9813ZM208.574 22.7415L205.691 13.7048C205.617 13.3352 205.488 13.058 205.303 12.8732C205.155 12.6514 204.897 12.5406 204.527 12.5406C204.157 12.5406 203.88 12.6514 203.695 12.8732C203.548 13.058 203.418 13.3352 203.307 13.7048L200.48 22.7415H208.574Z" fill="#08462E"/>
<path d="M177.659 41.0938C175.959 41.0938 174.573 40.5764 173.501 39.5415C172.429 38.5066 171.894 37.1945 171.894 35.6052V6.27748C171.894 4.65124 172.411 3.28372 173.446 2.17492C174.518 1.06612 175.922 0.511719 177.659 0.511719C179.507 0.511719 180.949 1.06612 181.984 2.17492C183.055 3.24676 183.591 4.57732 183.591 6.1666V35.6052C183.591 37.1945 183.019 38.5066 181.873 39.5415C180.764 40.5764 179.359 41.0938 177.659 41.0938Z" fill="#08462E"/>
<path d="M0.719727 12.4586C0.719727 6.94785 5.76471 2.48047 11.988 2.48047H26.4114C32.6347 2.48047 37.6797 6.94784 37.6797 12.4586V28.9459C37.6797 32.7238 35.2446 36.1704 31.4079 37.8228L23.9173 41.0489C21.888 41.9229 19.4524 41.0294 18.7156 39.1407C18.2523 37.9531 17.0739 37.0974 15.668 36.9275L9.33997 36.163C4.40144 35.5664 0.719727 31.8312 0.719727 27.4176V12.4586Z" fill="#19B377"/>
<path d="M5.67773 15.8643C5.67773 14.9274 6.53538 14.168 7.59334 14.168V14.168C8.65131 14.168 9.50895 14.9274 9.50895 15.8643V24.158C9.50895 25.0949 8.65131 25.8543 7.59334 25.8543V25.8543C6.53538 25.8543 5.67773 25.0949 5.67773 24.158V15.8643Z" fill="#FEFEFE"/>
<path d="M13.3403 10.8252C13.3403 9.88836 14.198 9.12891 15.2559 9.12891C16.3139 9.12891 17.1716 9.88836 17.1716 10.8252V28.9919C17.1716 29.9287 16.3139 30.6882 15.2559 30.6882C14.198 30.6882 13.3403 29.9287 13.3403 28.9919V10.8252Z" fill="#FEFEFE"/>
<path d="M20.7773 10.4228C20.7773 9.48602 21.635 8.72656 22.693 8.72656V8.72656C23.7509 8.72656 24.6086 9.48602 24.6086 10.4228V32.0149C24.6086 32.9517 23.7509 33.7112 22.693 33.7112V33.7112C21.635 33.7112 20.7773 32.9517 20.7773 32.0149V10.4228Z" fill="#FEFEFE"/>
<path d="M28.4399 15.8643C28.4399 14.9274 29.2976 14.168 30.3556 14.168V14.168C31.4135 14.168 32.2712 14.9274 32.2712 15.8643V27.3818C32.2712 28.3187 31.4135 29.0781 30.3556 29.0781V29.0781C29.2976 29.0781 28.4399 28.3187 28.4399 27.3818V15.8643Z" fill="#FEFEFE"/>
</svg>
